<?xml version="1.0" encoding="UTF-8"?>
<svg xmlns="http://www.w3.org/2000/svg" xmlns:xlink="http://www.w3.org/1999/xlink" width="113.805" height="130.294" viewBox="0 0 113.805 130.294">
<defs>
<g>
<g id="glyph-0-0">
<path d="M 8.546875 -7.8125 L 8.546875 -8.15625 L 7.453125 -8.140625 C 7.125 -8.140625 6.53125 -8.140625 6.234375 -8.15625 L 6.234375 -7.8125 C 6.84375 -7.8125 7.015625 -7.46875 7.015625 -7.234375 C 7.015625 -7.15625 7.015625 -7.140625 6.9375 -6.96875 L 4.703125 -1.078125 L 2.359375 -7.296875 C 2.296875 -7.421875 2.296875 -7.46875 2.296875 -7.46875 C 2.296875 -7.8125 2.890625 -7.8125 3.1875 -7.8125 L 3.1875 -8.15625 C 2.90625 -8.140625 2 -8.140625 1.65625 -8.140625 C 1.3125 -8.140625 0.5 -8.140625 0.21875 -8.15625 L 0.21875 -7.8125 C 0.953125 -7.8125 1.140625 -7.8125 1.328125 -7.34375 L 4.125 0.03125 C 4.1875 0.1875 4.203125 0.25 4.375 0.25 C 4.546875 0.25 4.546875 0.21875 4.640625 0.015625 L 7.296875 -6.984375 C 7.40625 -7.28125 7.609375 -7.8125 8.546875 -7.8125 Z M 8.546875 -7.8125 "/>
</g>
</g>
<clipPath id="clip-0">
<path clip-rule="nonzero" d="M 0 9 L 113.707031 9 L 113.707031 10 L 0 10 Z M 0 9 "/>
</clipPath>
<clipPath id="clip-1">
<path clip-rule="nonzero" d="M 44 110 L 70 110 L 70 129.941406 L 44 129.941406 Z M 44 110 "/>
</clipPath>
<clipPath id="clip-2">
<path clip-rule="nonzero" d="M 0 65 L 113.707031 65 L 113.707031 67 L 0 67 Z M 0 65 "/>
</clipPath>
<clipPath id="clip-3">
<path clip-rule="nonzero" d="M 113 9 L 113.707031 9 L 113.707031 67 L 113 67 Z M 113 9 "/>
</clipPath>
</defs>
<path fill="none" stroke-width="0.3985" stroke-linecap="butt" stroke-linejoin="miter" stroke="rgb(0%, 0%, 0%)" stroke-opacity="1" stroke-miterlimit="10" d="M 26.605 -8.716031 L 26.605 8.717562 M 30.089375 -4.360563 L 30.089375 4.358187 " transform="matrix(1, 0, 0, -1, 28.4575, 9.366)"/>
<g clip-path="url(#clip-0)">
<path fill="none" stroke-width="0.3985" stroke-linecap="butt" stroke-linejoin="miter" stroke="rgb(0%, 0%, 0%)" stroke-opacity="1" stroke-miterlimit="10" d="M -28.348125 -0.0011875 L 26.405781 -0.0011875 M 30.288594 -0.0011875 L 85.038594 -0.0011875 " transform="matrix(1, 0, 0, -1, 28.4575, 9.366)"/>
</g>
<g clip-path="url(#clip-1)">
<path fill="none" stroke-width="0.3985" stroke-linecap="butt" stroke-linejoin="miter" stroke="rgb(0%, 0%, 0%)" stroke-opacity="1" stroke-miterlimit="10" d="M 35.319844 -113.387906 C 35.319844 -109.536344 32.19875 -106.41525 28.347188 -106.41525 C 24.495625 -106.41525 21.374531 -109.536344 21.374531 -113.387906 C 21.374531 -117.239469 24.495625 -120.360563 28.347188 -120.360563 C 32.19875 -120.360563 35.319844 -117.239469 35.319844 -113.387906 Z M 35.319844 -113.387906 " transform="matrix(1, 0, 0, -1, 28.4575, 9.366)"/>
</g>
<g fill="rgb(0%, 0%, 0%)" fill-opacity="1">
<use xlink:href="#glyph-0-0" x="52.4165" y="126.869"/>
</g>
<path fill="none" stroke-width="0.3985" stroke-linecap="butt" stroke-linejoin="miter" stroke="rgb(0%, 0%, 0%)" stroke-opacity="1" stroke-miterlimit="10" d="M -0.00046875 -113.387906 L 21.175313 -113.387906 M 35.519063 -113.387906 L 56.694844 -113.387906 " transform="matrix(1, 0, 0, -1, 28.4575, 9.366)"/>
<path fill="none" stroke-width="0.3985" stroke-linecap="butt" stroke-linejoin="miter" stroke="rgb(0%, 0%, 0%)" stroke-opacity="1" stroke-miterlimit="10" d="M 14.397969 -60.180875 L 42.296406 -60.180875 L 42.296406 -53.208219 L 14.397969 -53.208219 Z M 14.397969 -60.180875 " transform="matrix(1, 0, 0, -1, 28.4575, 9.366)"/>
<g clip-path="url(#clip-2)">
<path fill="none" stroke-width="0.3985" stroke-linecap="butt" stroke-linejoin="miter" stroke="rgb(0%, 0%, 0%)" stroke-opacity="1" stroke-miterlimit="10" d="M -28.348125 -56.692594 L 14.19875 -56.692594 M 42.495625 -56.692594 L 85.038594 -56.692594 " transform="matrix(1, 0, 0, -1, 28.4575, 9.366)"/>
</g>
<path fill="none" stroke-width="0.3985" stroke-linecap="butt" stroke-linejoin="miter" stroke="rgb(0%, 0%, 0%)" stroke-opacity="1" stroke-miterlimit="10" d="M -0.00046875 -56.692594 L -0.00046875 -113.387906 " transform="matrix(1, 0, 0, -1, 28.4575, 9.366)"/>
<path fill="none" stroke-width="0.3985" stroke-linecap="butt" stroke-linejoin="miter" stroke="rgb(0%, 0%, 0%)" stroke-opacity="1" stroke-miterlimit="10" d="M 56.694844 -56.692594 L 56.694844 -113.387906 " transform="matrix(1, 0, 0, -1, 28.4575, 9.366)"/>
<path fill="none" stroke-width="0.3985" stroke-linecap="butt" stroke-linejoin="miter" stroke="rgb(0%, 0%, 0%)" stroke-opacity="1" stroke-miterlimit="10" d="M -28.348125 -0.0011875 L -28.348125 -56.692594 " transform="matrix(1, 0, 0, -1, 28.4575, 9.366)"/>
<g clip-path="url(#clip-3)">
<path fill="none" stroke-width="0.3985" stroke-linecap="butt" stroke-linejoin="miter" stroke="rgb(0%, 0%, 0%)" stroke-opacity="1" stroke-miterlimit="10" d="M 85.038594 -0.0011875 L 85.038594 -56.692594 " transform="matrix(1, 0, 0, -1, 28.4575, 9.366)"/>
</g>
</svg>
