<?xml version="1.0" encoding="UTF-8"?>
<svg xmlns="http://www.w3.org/2000/svg" xmlns:xlink="http://www.w3.org/1999/xlink" width="209.466" height="128.89" viewBox="0 0 209.466 128.89">
<defs>
<g>
<g id="glyph-0-0">
<path d="M 5.359375 -2.4375 C 5.359375 -4.03125 4.25 -5.09375 3.046875 -5.09375 C 1.984375 -5.09375 1.59375 -4.171875 1.46875 -3.84375 L 1.46875 -4.15625 C 1.46875 -7.1875 2.9375 -7.65625 3.578125 -7.65625 C 4.015625 -7.65625 4.453125 -7.53125 4.671875 -7.171875 C 4.53125 -7.171875 4.078125 -7.171875 4.078125 -6.6875 C 4.078125 -6.421875 4.25 -6.1875 4.5625 -6.1875 C 4.859375 -6.1875 5.0625 -6.375 5.0625 -6.71875 C 5.0625 -7.34375 4.609375 -7.953125 3.578125 -7.953125 C 2.0625 -7.953125 0.484375 -6.40625 0.484375 -3.78125 C 0.484375 -0.484375 1.921875 0.25 2.9375 0.25 C 4.25 0.25 5.359375 -0.890625 5.359375 -2.4375 Z M 4.375 -2.453125 C 4.375 -1.84375 4.375 -1.296875 4.140625 -0.84375 C 3.84375 -0.28125 3.421875 -0.078125 2.9375 -0.078125 C 2.1875 -0.078125 1.828125 -0.734375 1.71875 -0.984375 C 1.609375 -1.296875 1.5 -1.890625 1.5 -2.71875 C 1.5 -3.671875 1.921875 -4.859375 3 -4.859375 C 3.65625 -4.859375 4 -4.40625 4.1875 -4 C 4.375 -3.5625 4.375 -2.96875 4.375 -2.453125 Z M 4.375 -2.453125 "/>
</g>
<g id="glyph-0-1">
<path d="M 5.359375 -3.828125 C 5.359375 -4.8125 5.296875 -5.78125 4.859375 -6.6875 C 4.375 -7.6875 3.515625 -7.953125 2.921875 -7.953125 C 2.234375 -7.953125 1.390625 -7.609375 0.9375 -6.609375 C 0.609375 -5.859375 0.484375 -5.109375 0.484375 -3.828125 C 0.484375 -2.671875 0.578125 -1.796875 1 -0.9375 C 1.46875 -0.03125 2.296875 0.25 2.921875 0.25 C 3.953125 0.25 4.546875 -0.375 4.90625 -1.0625 C 5.328125 -1.953125 5.359375 -3.125 5.359375 -3.828125 Z M 4.453125 -3.96875 C 4.453125 -3.171875 4.453125 -2.265625 4.3125 -1.53125 C 4.09375 -0.21875 3.328125 0.015625 2.921875 0.015625 C 2.53125 0.015625 1.75 -0.203125 1.53125 -1.5 C 1.40625 -2.21875 1.40625 -3.125 1.40625 -3.96875 C 1.40625 -4.953125 1.40625 -5.828125 1.59375 -6.53125 C 1.796875 -7.34375 2.40625 -7.703125 2.921875 -7.703125 C 3.375 -7.703125 4.0625 -7.4375 4.296875 -6.40625 C 4.453125 -5.71875 4.453125 -4.78125 4.453125 -3.96875 Z M 4.453125 -3.96875 "/>
</g>
<g id="glyph-1-0">
<path d="M 3.75 -1.984375 C 3.75 -2.90625 3.015625 -3.640625 2.109375 -3.640625 C 1.203125 -3.640625 0.46875 -2.90625 0.46875 -1.984375 C 0.46875 -1.078125 1.203125 -0.34375 2.109375 -0.34375 C 3.015625 -0.34375 3.75 -1.078125 3.75 -1.984375 Z M 3.390625 -1.984375 C 3.390625 -1.28125 2.828125 -0.703125 2.109375 -0.703125 C 1.40625 -0.703125 0.84375 -1.28125 0.84375 -1.984375 C 0.84375 -2.703125 1.40625 -3.28125 2.109375 -3.28125 C 2.828125 -3.28125 3.390625 -2.703125 3.390625 -1.984375 Z M 3.390625 -1.984375 "/>
</g>
<g id="glyph-2-0">
<path d="M 7.90625 -5.6875 L 8.25 -7.8125 C 8.265625 -7.90625 8.265625 -7.9375 8.265625 -7.96875 C 8.265625 -8.109375 8.203125 -8.109375 7.953125 -8.109375 L 1.421875 -8.109375 C 1.140625 -8.109375 1.140625 -8.09375 1.0625 -7.875 L 0.328125 -5.71875 C 0.328125 -5.703125 0.28125 -5.5625 0.28125 -5.5625 C 0.28125 -5.5 0.328125 -5.4375 0.40625 -5.4375 C 0.5 -5.4375 0.53125 -5.484375 0.578125 -5.640625 C 1.078125 -7.09375 1.328125 -7.75 2.921875 -7.75 L 3.71875 -7.75 C 4 -7.75 4.125 -7.75 4.125 -7.625 C 4.125 -7.59375 4.125 -7.5625 4.0625 -7.34375 L 2.46875 -0.9375 C 2.34375 -0.46875 2.3125 -0.34375 1.046875 -0.34375 C 0.75 -0.34375 0.671875 -0.34375 0.671875 -0.125 C 0.671875 0 0.796875 0 0.859375 0 C 1.15625 0 1.46875 -0.03125 1.765625 -0.03125 L 3.640625 -0.03125 C 3.9375 -0.03125 4.25 0 4.546875 0 C 4.6875 0 4.8125 0 4.8125 -0.234375 C 4.8125 -0.34375 4.71875 -0.34375 4.40625 -0.34375 C 3.328125 -0.34375 3.328125 -0.453125 3.328125 -0.640625 C 3.328125 -0.640625 3.328125 -0.734375 3.375 -0.921875 L 4.984375 -7.296875 C 5.0625 -7.578125 5.078125 -7.6875 5.265625 -7.734375 C 5.359375 -7.75 5.75 -7.75 6 -7.75 C 7.203125 -7.75 7.75 -7.703125 7.75 -6.78125 C 7.75 -6.59375 7.703125 -6.140625 7.640625 -5.703125 L 7.625 -5.5625 C 7.625 -5.515625 7.671875 -5.4375 7.75 -5.4375 C 7.859375 -5.4375 7.859375 -5.5 7.90625 -5.6875 Z M 7.90625 -5.6875 "/>
</g>
<g id="glyph-3-0">
<path d="M 3.796875 -1.421875 L 3.546875 -1.421875 C 3.53125 -1.265625 3.46875 -0.875 3.375 -0.71875 C 3.328125 -0.65625 2.71875 -0.65625 2.59375 -0.65625 L 1.171875 -0.65625 L 2.25 -1.625 C 2.375 -1.75 2.703125 -2.015625 2.84375 -2.125 C 3.328125 -2.578125 3.796875 -3.015625 3.796875 -3.734375 C 3.796875 -4.6875 3 -5.296875 2.015625 -5.296875 C 1.046875 -5.296875 0.421875 -4.578125 0.421875 -3.859375 C 0.421875 -3.46875 0.734375 -3.421875 0.84375 -3.421875 C 1.015625 -3.421875 1.265625 -3.53125 1.265625 -3.84375 C 1.265625 -4.25 0.859375 -4.25 0.765625 -4.25 C 1 -4.84375 1.53125 -5.03125 1.921875 -5.03125 C 2.65625 -5.03125 3.046875 -4.40625 3.046875 -3.734375 C 3.046875 -2.90625 2.46875 -2.296875 1.515625 -1.34375 L 0.515625 -0.296875 C 0.421875 -0.21875 0.421875 -0.203125 0.421875 0 L 3.5625 0 Z M 3.796875 -1.421875 "/>
</g>
<g id="glyph-4-0">
<path d="M 4.125 -3 C 4.15625 -3.109375 4.15625 -3.125 4.15625 -3.1875 C 4.15625 -3.390625 4 -3.4375 3.90625 -3.4375 C 3.859375 -3.4375 3.6875 -3.421875 3.578125 -3.21875 C 3.5625 -3.171875 3.484375 -2.890625 3.453125 -2.71875 L 2.96875 -0.8125 C 2.96875 -0.78125 2.625 -0.140625 2.046875 -0.140625 C 1.65625 -0.140625 1.515625 -0.4375 1.515625 -0.78125 C 1.515625 -1.25 1.78125 -1.953125 1.96875 -2.421875 C 2.046875 -2.625 2.078125 -2.6875 2.078125 -2.84375 C 2.078125 -3.28125 1.71875 -3.515625 1.359375 -3.515625 C 0.5625 -3.515625 0.234375 -2.390625 0.234375 -2.296875 C 0.234375 -2.21875 0.296875 -2.1875 0.359375 -2.1875 C 0.46875 -2.1875 0.46875 -2.234375 0.5 -2.3125 C 0.703125 -3.015625 1.046875 -3.296875 1.328125 -3.296875 C 1.453125 -3.296875 1.515625 -3.21875 1.515625 -3.03125 C 1.515625 -2.859375 1.453125 -2.671875 1.40625 -2.53125 C 1.078125 -1.6875 0.9375 -1.28125 0.9375 -0.90625 C 0.9375 -0.125 1.53125 0.078125 2 0.078125 C 2.375 0.078125 2.640625 -0.09375 2.84375 -0.265625 C 2.71875 0.171875 2.640625 0.484375 2.34375 0.875 C 2.078125 1.1875 1.765625 1.40625 1.40625 1.40625 C 1.265625 1.40625 0.96875 1.375 0.8125 1.140625 C 1.234375 1.109375 1.265625 0.75 1.265625 0.703125 C 1.265625 0.515625 1.109375 0.40625 0.953125 0.40625 C 0.765625 0.40625 0.5 0.546875 0.5 0.9375 C 0.5 1.3125 0.84375 1.625 1.40625 1.625 C 2.21875 1.625 3.125 0.96875 3.375 0.015625 Z M 4.125 -3 "/>
</g>
<g id="glyph-4-1">
<path d="M 4.1875 -1.140625 C 4.1875 -1.21875 4.125 -1.25 4.0625 -1.25 C 3.96875 -1.25 3.953125 -1.1875 3.921875 -1.109375 C 3.765625 -0.578125 3.3125 -0.140625 2.859375 -0.140625 C 2.59375 -0.140625 2.40625 -0.3125 2.40625 -0.65625 C 2.40625 -0.8125 2.453125 -1 2.5625 -1.4375 L 2.828125 -2.53125 C 2.9375 -2.953125 3.21875 -3.296875 3.578125 -3.296875 C 3.625 -3.296875 3.828125 -3.296875 4 -3.171875 C 3.640625 -3.09375 3.625 -2.78125 3.625 -2.75 C 3.625 -2.578125 3.765625 -2.453125 3.9375 -2.453125 C 4.109375 -2.453125 4.375 -2.59375 4.375 -2.9375 C 4.375 -3.390625 3.875 -3.515625 3.578125 -3.515625 C 3.21875 -3.515625 2.90625 -3.25 2.71875 -2.9375 C 2.546875 -3.359375 2.140625 -3.515625 1.8125 -3.515625 C 0.9375 -3.515625 0.453125 -2.515625 0.453125 -2.296875 C 0.453125 -2.21875 0.515625 -2.1875 0.578125 -2.1875 C 0.671875 -2.1875 0.6875 -2.234375 0.703125 -2.328125 C 0.890625 -2.90625 1.375 -3.296875 1.78125 -3.296875 C 2.09375 -3.296875 2.25 -3.0625 2.25 -2.78125 C 2.25 -2.625 2.15625 -2.25 2.09375 -2 L 1.8125 -0.90625 C 1.703125 -0.484375 1.421875 -0.140625 1.0625 -0.140625 C 1.03125 -0.140625 0.828125 -0.140625 0.65625 -0.25 C 1.015625 -0.34375 1.015625 -0.6875 1.015625 -0.6875 C 1.015625 -0.875 0.875 -0.984375 0.703125 -0.984375 C 0.484375 -0.984375 0.25 -0.796875 0.25 -0.5 C 0.25 -0.125 0.640625 0.078125 1.046875 0.078125 C 1.46875 0.078125 1.765625 -0.234375 1.90625 -0.5 C 2.09375 -0.109375 2.453125 0.078125 2.84375 0.078125 C 3.703125 0.078125 4.1875 -0.921875 4.1875 -1.140625 Z M 4.1875 -1.140625 "/>
</g>
</g>
<clipPath id="clip-0">
<path clip-rule="nonzero" d="M 205 58 L 209.199219 58 L 209.199219 64 L 205 64 Z M 205 58 "/>
</clipPath>
<clipPath id="clip-1">
<path clip-rule="nonzero" d="M 103 123 L 108 123 L 108 128.835938 L 103 128.835938 Z M 103 123 "/>
</clipPath>
<clipPath id="clip-2">
<path clip-rule="nonzero" d="M 107 125 L 113 125 L 113 128.835938 L 107 128.835938 Z M 107 125 "/>
</clipPath>
</defs>
<g fill="rgb(0%, 0%, 0%)" fill-opacity="1">
<use xlink:href="#glyph-0-0" x="-0.757" y="118.699"/>
</g>
<g fill="rgb(0%, 0%, 0%)" fill-opacity="1">
<use xlink:href="#glyph-0-1" x="5.096" y="118.699"/>
</g>
<g fill="rgb(0%, 0%, 0%)" fill-opacity="1">
<use xlink:href="#glyph-1-0" x="10.949" y="114.36"/>
</g>
<path fill="none" stroke-width="0.3985" stroke-linecap="butt" stroke-linejoin="miter" stroke="rgb(0%, 0%, 0%)" stroke-opacity="1" stroke-miterlimit="10" d="M -85.03975 -56.693938 L 85.042281 56.692781 L 85.042281 -56.693938 L -85.03975 -56.693938 " transform="matrix(1, 0, 0, -1, 104.821, 58.017)"/>
<g fill="rgb(0%, 0%, 0%)" fill-opacity="1">
<use xlink:href="#glyph-2-0" x="99.024" y="52.123"/>
</g>
<g fill="rgb(0%, 0%, 0%)" fill-opacity="1">
<use xlink:href="#glyph-3-0" x="105.885" y="53.916"/>
</g>
<g fill="rgb(0%, 0%, 0%)" fill-opacity="1">
<use xlink:href="#glyph-2-0" x="193.961" y="60.43"/>
</g>
<g fill="rgb(0%, 0%, 0%)" fill-opacity="1">
<use xlink:href="#glyph-3-0" x="200.822" y="62.224"/>
</g>
<g clip-path="url(#clip-0)">
<g fill="rgb(0%, 0%, 0%)" fill-opacity="1">
<use xlink:href="#glyph-4-0" x="205.056" y="62.224"/>
</g>
</g>
<g fill="rgb(0%, 0%, 0%)" fill-opacity="1">
<use xlink:href="#glyph-2-0" x="96.641" y="126.98"/>
</g>
<g clip-path="url(#clip-1)">
<g fill="rgb(0%, 0%, 0%)" fill-opacity="1">
<use xlink:href="#glyph-3-0" x="103.502" y="128.773"/>
</g>
</g>
<g clip-path="url(#clip-2)">
<g fill="rgb(0%, 0%, 0%)" fill-opacity="1">
<use xlink:href="#glyph-4-1" x="107.736" y="128.773"/>
</g>
</g>
<path fill="none" stroke-width="0.3985" stroke-linecap="butt" stroke-linejoin="miter" stroke="rgb(0%, 0%, 0%)" stroke-opacity="1" stroke-miterlimit="10" d="M 70.8665 -56.693938 L 70.8665 -42.522063 L 85.042281 -42.522063 L 85.042281 -56.693938 Z M 70.8665 -56.693938 " transform="matrix(1, 0, 0, -1, 104.821, 58.017)"/>
<path fill="none" stroke-width="0.3985" stroke-linecap="butt" stroke-linejoin="miter" stroke="rgb(0%, 0%, 100%)" stroke-opacity="1" stroke-miterlimit="10" d="M -28.348344 -56.693938 C -28.348344 -45.502531 -31.66475 -34.557219 -37.871781 -25.248625 " transform="matrix(1, 0, 0, -1, 104.821, 58.017)"/>
</svg>
