<?xml version="1.0" encoding="UTF-8"?>
<svg xmlns="http://www.w3.org/2000/svg" xmlns:xlink="http://www.w3.org/1999/xlink" width="56.712" height="36.111" viewBox="0 0 56.712 36.111">
<defs>
<clipPath id="clip-0">
<path clip-rule="nonzero" d="M 0 3 L 56.566406 3 L 56.566406 4 L 0 4 Z M 0 3 "/>
</clipPath>
<clipPath id="clip-1">
<path clip-rule="nonzero" d="M 14 28 L 43 28 L 43 35.667969 L 14 35.667969 Z M 14 28 "/>
</clipPath>
<clipPath id="clip-2">
<path clip-rule="nonzero" d="M 0 31 L 56.566406 31 L 56.566406 33 L 0 33 Z M 0 31 "/>
</clipPath>
</defs>
<path fill="none" stroke-width="0.3985" stroke-linecap="round" stroke-linejoin="miter" stroke="rgb(0%, 0%, 0%)" stroke-opacity="1" stroke-miterlimit="10" d="M 11.607656 28.346687 L 14.400625 31.13575 L 19.97875 25.557625 L 25.556875 31.13575 L 31.135 25.557625 L 33.924063 28.346687 L 36.717031 31.13575 L 42.295156 25.557625 L 45.084219 28.346687 " transform="matrix(1, 0, 0, -1, -0.135, 31.9795)"/>
<g clip-path="url(#clip-0)">
<path fill="none" stroke-width="0.3985" stroke-linecap="butt" stroke-linejoin="miter" stroke="rgb(0%, 0%, 0%)" stroke-opacity="1" stroke-miterlimit="10" d="M -0.00171875 28.346687 L 11.607656 28.346687 M 45.084219 28.346687 L 56.693594 28.346687 " transform="matrix(1, 0, 0, -1, -0.135, 31.9795)"/>
</g>
<g clip-path="url(#clip-1)">
<path fill="none" stroke-width="0.3985" stroke-linecap="butt" stroke-linejoin="miter" stroke="rgb(0%, 0%, 0%)" stroke-opacity="1" stroke-miterlimit="10" d="M 14.400625 -3.485344 L 42.295156 -3.485344 L 42.295156 3.487312 L 14.400625 3.487312 Z M 14.400625 -3.485344 " transform="matrix(1, 0, 0, -1, -0.135, 31.9795)"/>
</g>
<g clip-path="url(#clip-2)">
<path fill="none" stroke-width="0.3985" stroke-linecap="butt" stroke-linejoin="miter" stroke="rgb(0%, 0%, 0%)" stroke-opacity="1" stroke-miterlimit="10" d="M -0.00171875 -0.00096875 L 14.201406 -0.00096875 M 42.494375 -0.00096875 L 56.693594 -0.00096875 " transform="matrix(1, 0, 0, -1, -0.135, 31.9795)"/>
</g>
</svg>
